<svg width="850" height="230" xmlns="http://www.w3.org/2000/svg">
  <defs>
    <radialGradient id="glow" cx="50%" cy="50%" r="50%">
      <stop offset="0%" stop-color="#1a1209" />
      <stop offset="100%" stop-color="#0a0a0a" />
    </radialGradient>
  </defs>

  <rect width="100%" height="100%" fill="#0a0a0a" rx="12" />
  <rect width="100%" height="100%" fill="url(#glow)" rx="12" />

  <circle cx="120" cy="45" r="1" fill="#C9A96E" opacity="0.3" />
  <circle cx="340" cy="28" r="0.8" fill="#C9A96E" opacity="0.2" />
  <circle cx="580" cy="52" r="1.2" fill="#C9A96E" opacity="0.25" />
  <circle cx="720" cy="35" r="0.7" fill="#C9A96E" opacity="0.15" />
  <circle cx="200" cy="190" r="0.9" fill="#C9A96E" opacity="0.2" />
  <circle cx="650" cy="185" r="1" fill="#C9A96E" opacity="0.25" />
  <circle cx="450" cy="15" r="0.6" fill="#C9A96E" opacity="0.2" />
  <circle cx="80" cy="170" r="0.8" fill="#C9A96E" opacity="0.15" />
  <circle cx="770" cy="160" r="0.7" fill="#C9A96E" opacity="0.2" />
  <circle cx="300" cy="200" r="1.1" fill="#C9A96E" opacity="0.18" />
  <circle cx="500" cy="195" r="0.5" fill="#C9A96E" opacity="0.22" />
  <circle cx="160" cy="100" r="0.6" fill="#C9A96E" opacity="0.12" />
  <circle cx="690" cy="90" r="0.9" fill="#C9A96E" opacity="0.16" />
  <circle cx="400" cy="170" r="0.7" fill="#C9A96E" opacity="0.14" />

  <text x="425" y="95" text-anchor="middle" fill="#ffffff" font-family="'Segoe UI', system-ui, -apple-system, sans-serif" font-size="38" font-weight="300" letter-spacing="12">THEO HOUGUET</text>

  <line x1="355" y1="120" x2="495" y2="120" stroke="#C9A96E" stroke-width="0.5" opacity="0.4" />

  <text x="425" y="152" text-anchor="middle" fill="#C9A96E" font-family="'Segoe UI', system-ui, -apple-system, sans-serif" font-size="13" font-weight="400" letter-spacing="6" opacity="0.8">CREATIVE DEVELOPER</text>

  <text x="425" y="195" text-anchor="middle" fill="#555555" font-family="'Segoe UI', system-ui, -apple-system, sans-serif" font-size="11" font-weight="300" letter-spacing="3">CLEANLYSTUDIO</text>
</svg>
